<svg width="314" height="461" viewBox="0 0 314 461" fill="none" xmlns="http://www.w3.org/2000/svg">
<g filter="url(#filter0_f_446_273)">
<path d="M156.915 30C147.052 40.6083 141.042 54.4853 141.042 69.726C141.624 103.185 145.952 136.604 146.333 169.994C147.116 201.177 137.253 230.455 125.253 259.031C121.252 266.922 116.935 274.643 112.607 282.383L99.9077 279.957C88.4469 277.791 80.9968 267.233 83.2932 256.374C85.2933 246.879 94.1191 240.231 103.961 240.231L108.596 240.702L98.2568 158.884C94.881 122.487 75.0495 90.5014 45.8737 69.7461C40.8576 66.1765 35.5346 62.9078 30 60.0301V350.505H100.775C106.067 377.678 121.877 401.441 144.1 417.685C149.381 421.134 153.815 425.686 157 431C160.175 425.686 164.609 421.134 169.9 417.685C192.123 401.401 207.933 377.688 213.225 350.505H284V60.0301C278.465 62.9078 273.142 66.1765 268.126 69.7461C238.919 90.5315 219.13 122.487 215.743 158.884L205.404 240.702L210.039 240.231C219.881 240.271 228.707 246.869 230.707 256.374C232.993 267.233 225.543 277.781 214.092 279.957L201.393 282.383C197.065 274.653 192.737 266.932 188.747 259.031C176.736 230.475 166.873 201.197 167.657 169.994C168.037 136.504 172.366 103.115 172.948 69.726C172.948 54.4853 166.937 40.6484 157.074 30H156.915ZM51.0908 101.892C64.7845 117.122 73.9807 136.083 76.7004 156.969L85.1663 224.449C74.3193 229.563 66.1179 238.948 63.0067 250.308H51.0167V101.912L51.0908 101.892ZM262.74 101.892V250.288H250.75C247.66 238.938 239.437 229.552 228.59 224.429L237.056 156.949C239.797 136.083 248.993 117.102 262.666 101.862L262.74 101.892ZM156.915 237.554C162.598 255.171 170.419 271.946 180.144 287.467C170.895 290.124 162.852 295.298 156.915 302.267C150.979 295.298 142.936 290.134 133.687 287.457C143.412 271.905 151.233 255.171 156.915 237.554ZM51.0908 270.381H63.0807C66.8587 284.228 78.2666 295.158 92.7116 298.978L102.881 301.174C100.162 310.519 98.6695 320.325 98.6695 330.552H51.0485V270.391L51.0908 270.381ZM250.782 270.381H262.772V330.542H215.151C215.151 320.375 213.658 310.519 210.939 301.164L221.108 298.968C235.606 295.148 247.004 284.208 250.739 270.371L250.782 270.381ZM123.581 305.776C136.417 307.49 146.312 317.908 146.312 330.532H119.856C119.856 321.939 121.2 313.647 123.581 305.776ZM190.218 305.776C192.599 313.647 193.943 321.919 193.943 330.532H167.487C167.487 317.888 177.382 307.49 190.218 305.776ZM122.279 350.595H146.333V392.808C134.692 381.227 126.226 366.739 122.279 350.595ZM167.498 350.595H191.552C187.657 366.739 179.17 381.247 167.498 392.808V350.595Z" fill="#001A5D"/>
</g>
<path d="M156.915 28C147.052 38.6083 141.042 52.4853 141.042 67.726C141.624 101.185 145.952 134.604 146.333 167.994C147.116 199.177 137.253 228.455 125.253 257.031C121.252 264.922 116.935 272.643 112.607 280.383L99.9077 277.957C88.4469 275.791 80.9968 265.233 83.2932 254.374C85.2933 244.879 94.1191 238.231 103.961 238.231L108.596 238.702L98.2568 156.884C94.881 120.487 75.0495 88.5014 45.8737 67.7461C40.8576 64.1765 35.5346 60.9078 30 58.0301V348.505H100.775C106.067 375.678 121.877 399.441 144.1 415.685C149.381 419.134 153.815 423.686 157 429C160.175 423.686 164.609 419.134 169.9 415.685C192.123 399.401 207.933 375.688 213.225 348.505H284V58.0301C278.465 60.9078 273.142 64.1765 268.126 67.7461C238.919 88.5315 219.13 120.487 215.743 156.884L205.404 238.702L210.039 238.231C219.881 238.271 228.707 244.869 230.707 254.374C232.993 265.233 225.543 275.781 214.092 277.957L201.393 280.383C197.065 272.653 192.737 264.932 188.747 257.031C176.736 228.475 166.873 199.197 167.657 167.994C168.037 134.504 172.366 101.115 172.948 67.726C172.948 52.4853 166.937 38.6484 157.074 28H156.915ZM51.0908 99.8918C64.7845 115.122 73.9807 134.083 76.7004 154.969L85.1663 222.449C74.3193 227.563 66.1179 236.948 63.0067 248.308H51.0167V99.9119L51.0908 99.8918ZM262.74 99.8918V248.288H250.75C247.66 236.938 239.437 227.552 228.59 222.429L237.056 154.949C239.797 134.083 248.993 115.102 262.666 99.8618L262.74 99.8918ZM156.915 235.554C162.598 253.171 170.419 269.946 180.144 285.467C170.895 288.124 162.852 293.298 156.915 300.267C150.979 293.298 142.936 288.134 133.687 285.457C143.412 269.905 151.233 253.171 156.915 235.554ZM51.0908 268.381H63.0807C66.8587 282.228 78.2666 293.158 92.7116 296.978L102.881 299.174C100.162 308.519 98.6695 318.325 98.6695 328.552H51.0485V268.391L51.0908 268.381ZM250.782 268.381H262.772V328.542H215.151C215.151 318.375 213.658 308.519 210.939 299.164L221.108 296.968C235.606 293.148 247.004 282.208 250.739 268.371L250.782 268.381ZM123.581 303.776C136.417 305.49 146.312 315.908 146.312 328.532H119.856C119.856 319.939 121.2 311.647 123.581 303.776ZM190.218 303.776C192.599 311.647 193.943 319.919 193.943 328.532H167.487C167.487 315.888 177.382 305.49 190.218 303.776ZM122.279 348.595H146.333V390.808C134.692 379.227 126.226 364.739 122.279 348.595ZM167.498 348.595H191.552C187.657 364.739 179.17 379.247 167.498 390.808V348.595Z" fill="white"/>
<defs>
<filter id="filter0_f_446_273" x="0" y="0" width="314" height="461" filterUnits="userSpaceOnUse" color-interpolation-filters="sRGB">
<feFlood flood-opacity="0" result="BackgroundImageFix"/>
<feBlend mode="normal" in="SourceGraphic" in2="BackgroundImageFix" result="shape"/>
<feGaussianBlur stdDeviation="15" result="effect1_foregroundBlur_446_273"/>
</filter>
</defs>
</svg>
