<svg width="303" height="72" fill="none" xmlns="http://www.w3.org/2000/svg"><g filter="url(#a)"><path d="M68.096 40.019v10.099h7.868c1.621 0 3.29-.334 4.58-1.391a4.511 4.511 0 0 0 1.653-3.669c-.001-1.47-.397-2.814-1.606-3.748-1.31-1.013-3.069-1.279-4.674-1.279l-7.821-.012Zm-38.09 13.458a132.9 132.9 0 0 1 5.6-5.994l.648-.648v20.27h-6.327V53.584l.08-.107Zm15.935-15.199a102.76 102.76 0 0 1 5.619-4.158l.597-.397v33.414h-6.354V38.389l.138-.111Zm28.635 17.615h-6.48v11.228H61.73V34.152H76.4a16.664 16.664 0 0 1 5.1.728 10.99 10.99 0 0 1 3.867 2.122 8.96 8.96 0 0 1 2.46 3.331c.58 1.396.869 2.898.85 4.411a10.894 10.894 0 0 1-.597 3.748 9.572 9.572 0 0 1-4.14 5.06c-.834.516-1.733.917-2.673 1.192l8.778 12.365h-7.572l-7.897-11.216Zm36.263-13.851-7.196 17.063-3.401 8.016h-6.599l14.428-33.207h5.71l14.444 33.207h-6.789l-10.597-25.079Z" fill="#2B3852"/></g><path d="M68.096 39.019v10.099h7.868c1.621 0 3.29-.334 4.58-1.391a4.511 4.511 0 0 0 1.653-3.669c-.001-1.47-.397-2.814-1.606-3.748-1.31-1.013-3.069-1.279-4.674-1.279l-7.821-.012Zm-38.09 13.458a132.9 132.9 0 0 1 5.6-5.994l.648-.648v20.27h-6.327V52.584l.08-.107Zm15.935-15.199a102.76 102.76 0 0 1 5.619-4.158l.597-.397v33.414h-6.354V37.389l.138-.111Zm28.635 17.615h-6.48v11.228H61.73V33.152H76.4a16.664 16.664 0 0 1 5.1.728 10.99 10.99 0 0 1 3.867 2.122 8.96 8.96 0 0 1 2.46 3.331c.58 1.396.869 2.898.85 4.411a10.894 10.894 0 0 1-.597 3.748 9.572 9.572 0 0 1-4.14 5.06c-.834.516-1.733.917-2.673 1.192l8.778 12.365h-7.572l-7.897-11.216Zm36.263-13.851-7.196 17.063-3.401 8.016h-6.599l14.428-33.207h5.71l14.444 33.207h-6.789l-10.597-25.079Z" fill="#fff"/><g filter="url(#b)"><path d="M158.629 58.152h-14.483l-2.778 7.58h-3.371l11.614-31.51h3.599l11.568 31.51h-3.37l-2.779-7.58Zm-.956-2.65-6.285-17.262-6.286 17.263h12.571Z" fill="#2B3852"/></g><g filter="url(#c)"><path d="M168.437 49.749c0-3.136.684-5.937 2.05-8.403 1.366-2.497 3.234-4.43 5.602-5.8 2.369-1.4 5.01-2.101 7.925-2.101 3.553 0 6.589.853 9.109 2.558 2.551 1.674 4.403 4.049 5.557 7.124h-3.735c-.911-2.162-2.307-3.851-4.19-5.07-1.852-1.217-4.099-1.826-6.741-1.826-2.338 0-4.448.548-6.331 1.644-1.852 1.096-3.309 2.679-4.372 4.75-1.063 2.039-1.594 4.414-1.594 7.124 0 2.709.531 5.084 1.594 7.124 1.063 2.04 2.52 3.608 4.372 4.704 1.883 1.096 3.993 1.644 6.331 1.644 2.642 0 4.889-.594 6.741-1.781 1.883-1.218 3.279-2.893 4.19-5.024h3.735c-1.154 3.045-3.006 5.404-5.557 7.079-2.55 1.674-5.587 2.512-9.109 2.512-2.915 0-5.556-.685-7.925-2.055-2.368-1.401-4.236-3.334-5.602-5.8-1.366-2.466-2.05-5.267-2.05-8.403Z" fill="#2B3852"/></g><g filter="url(#d)"><path d="M223.661 33.81v2.649h-8.836v29.274h-3.188V36.459h-8.881V33.81h20.905Z" fill="#2B3852"/></g><g filter="url(#e)"><path d="M231.884 33.81v31.923h-3.189V33.81h3.189Z" fill="#2B3852"/></g><g filter="url(#f)"><path d="M299 65.733h-3.188L278.186 38.88v26.853h-3.189V33.81h3.189l17.626 26.807V33.81H299v31.922Z" fill="#2B3852"/></g><g filter="url(#g)"><path d="M10.354 44.95v22.154H4V34.115h6.591l9.565 14.949a117.421 117.421 0 0 1 6.722-8.101c11.313-12.492 25.267-22.706 40.873-29.066 36.564-15.5 92.775-6.673 118.591 13.379-26.105-16.097-76.053-21.264-109.77-11.054-23.297 7.942-42.367 24.543-56.084 44.818l-.316.457-9.818-14.547Z" fill="#2B3852"/></g><path d="M10.354 43.95v22.154H4V33.115h6.591l9.565 14.949a117.421 117.421 0 0 1 6.722-8.101c11.313-12.492 25.267-22.706 40.873-29.066 36.564-15.5 92.775-6.673 118.591 13.379-26.105-16.097-76.053-21.264-109.77-11.054-23.297 7.942-42.367 24.543-56.084 44.818l-.316.457-9.818-14.547ZM158.632 58.152h-14.483l-2.778 7.581H138l11.614-31.511h3.599l11.568 31.511h-3.37l-2.779-7.581Zm-.956-2.649-6.285-17.263-6.286 17.263h12.571ZM168.44 49.749c0-3.136.684-5.937 2.05-8.403 1.366-2.497 3.234-4.43 5.602-5.8 2.369-1.4 5.01-2.101 7.925-2.101 3.553 0 6.589.853 9.109 2.558 2.551 1.674 4.403 4.049 5.557 7.124h-3.735c-.911-2.162-2.307-3.851-4.19-5.07-1.852-1.217-4.099-1.826-6.741-1.826-2.338 0-4.448.548-6.331 1.644-1.852 1.096-3.309 2.679-4.372 4.75-1.063 2.039-1.594 4.414-1.594 7.124 0 2.709.531 5.084 1.594 7.124 1.063 2.04 2.52 3.608 4.372 4.704 1.883 1.096 3.993 1.644 6.331 1.644 2.642 0 4.889-.594 6.741-1.781 1.883-1.218 3.279-2.893 4.19-5.024h3.735c-1.154 3.045-3.006 5.404-5.557 7.079-2.55 1.674-5.587 2.512-9.109 2.512-2.915 0-5.556-.685-7.925-2.055-2.368-1.401-4.236-3.334-5.602-5.8-1.366-2.466-2.05-5.267-2.05-8.403ZM223.664 33.811v2.648h-8.836v29.274h-3.188V36.459h-8.881v-2.648h20.905ZM231.887 33.811v31.922h-3.189V33.811h3.189ZM299.003 65.733h-3.188L278.189 38.88v26.853H275V33.811h3.189l17.626 26.807V33.811h3.188v31.922Z" fill="#fff"/><g filter="url(#h)"><path d="M254.912 33.458c0-.386-.148-.757-.413-1.031a1.385 1.385 0 0 0-.996-.427c-.374 0-.732.154-.996.427a1.483 1.483 0 0 0-.413 1.031v13.125c0 .387.148.758.413 1.032.264.273.622.427.996.427s.732-.154.996-.427c.265-.274.413-.645.413-1.032V33.458Zm-6.482 5.466c.175-.072.335-.181.469-.318a1.5 1.5 0 0 0-.023-2.094 1.4 1.4 0 0 0-1.029-.399 1.399 1.399 0 0 0-.544.139 15.664 15.664 0 0 0-6.769 5.918 16.452 16.452 0 0 0-2.531 8.788c0 8.86 6.94 16.042 15.5 16.042 8.56 0 15.5-7.182 15.5-16.042 0-6.58-3.829-12.232-9.3-14.706-.34-.14-.72-.139-1.058.005a1.43 1.43 0 0 0-.757.766c-.147.347-.157.74-.029 1.095.129.355.386.644.717.806a12.8 12.8 0 0 1 5.538 4.843 13.463 13.463 0 0 1 2.071 7.191 13.51 13.51 0 0 1-.966 5.023 13.16 13.16 0 0 1-2.749 4.258 12.638 12.638 0 0 1-4.114 2.845c-1.539.66-3.188.999-4.853.999-1.665 0-3.314-.339-4.853-.999a12.638 12.638 0 0 1-4.114-2.845 13.16 13.16 0 0 1-2.749-4.258 13.51 13.51 0 0 1-.966-5.023c0-2.554.719-5.053 2.071-7.191a12.8 12.8 0 0 1 5.538-4.843Z" fill="#000"/></g><path d="M254.912 33.458c0-.386-.148-.757-.413-1.031a1.385 1.385 0 0 0-.996-.427c-.374 0-.732.154-.996.427a1.483 1.483 0 0 0-.413 1.031v13.125c0 .387.148.758.413 1.032.264.273.622.427.996.427s.732-.154.996-.427c.265-.274.413-.645.413-1.032V33.458Zm-6.482 5.466c.175-.072.335-.181.469-.318a1.5 1.5 0 0 0-.023-2.094 1.4 1.4 0 0 0-1.029-.399 1.399 1.399 0 0 0-.544.139 15.664 15.664 0 0 0-6.769 5.918 16.452 16.452 0 0 0-2.531 8.788c0 8.86 6.94 16.042 15.5 16.042 8.56 0 15.5-7.182 15.5-16.042 0-6.58-3.829-12.232-9.3-14.706-.34-.14-.72-.139-1.058.005a1.43 1.43 0 0 0-.757.766c-.147.347-.157.74-.029 1.095.129.355.386.644.717.806a12.8 12.8 0 0 1 5.538 4.843 13.463 13.463 0 0 1 2.071 7.191 13.51 13.51 0 0 1-.966 5.023 13.16 13.16 0 0 1-2.749 4.258 12.638 12.638 0 0 1-4.114 2.845c-1.539.66-3.188.999-4.853.999-1.665 0-3.314-.339-4.853-.999a12.638 12.638 0 0 1-4.114-2.845 13.16 13.16 0 0 1-2.749-4.258 13.51 13.51 0 0 1-.966-5.023c0-2.554.719-5.053 2.071-7.191a12.8 12.8 0 0 1 5.538-4.843Z" fill="#fff"/><defs><filter id="a" x="25.927" y="29.723" width="106.298" height="41.414" filterUnits="userSpaceOnUse" color-interpolation-filters="sRGB"><feFlood flood-opacity="0" result="BackgroundImageFix"/><feBlend in="SourceGraphic" in2="BackgroundImageFix" result="shape"/><feGaussianBlur stdDeviation="2" result="effect1_foregroundBlur_418_137"/></filter><filter id="b" x="133.997" y="30.222" width="34.781" height="39.511" filterUnits="userSpaceOnUse" color-interpolation-filters="sRGB"><feFlood flood-opacity="0" result="BackgroundImageFix"/><feBlend in="SourceGraphic" in2="BackgroundImageFix" result="shape"/><feGaussianBlur stdDeviation="2" result="effect1_foregroundBlur_418_137"/></filter><filter id="c" x="164.437" y="29.445" width="38.243" height="40.562" filterUnits="userSpaceOnUse" color-interpolation-filters="sRGB"><feFlood flood-opacity="0" result="BackgroundImageFix"/><feBlend in="SourceGraphic" in2="BackgroundImageFix" result="shape"/><feGaussianBlur stdDeviation="2" result="effect1_foregroundBlur_418_137"/></filter><filter id="d" x="198.756" y="29.811" width="28.905" height="39.922" filterUnits="userSpaceOnUse" color-interpolation-filters="sRGB"><feFlood flood-opacity="0" result="BackgroundImageFix"/><feBlend in="SourceGraphic" in2="BackgroundImageFix" result="shape"/><feGaussianBlur stdDeviation="2" result="effect1_foregroundBlur_418_137"/></filter><filter id="e" x="224.695" y="29.811" width="11.189" height="39.922" filterUnits="userSpaceOnUse" color-interpolation-filters="sRGB"><feFlood flood-opacity="0" result="BackgroundImageFix"/><feBlend in="SourceGraphic" in2="BackgroundImageFix" result="shape"/><feGaussianBlur stdDeviation="2" result="effect1_foregroundBlur_418_137"/></filter><filter id="f" x="270.997" y="29.811" width="32.003" height="39.922" filterUnits="userSpaceOnUse" color-interpolation-filters="sRGB"><feFlood flood-opacity="0" result="BackgroundImageFix"/><feBlend in="SourceGraphic" in2="BackgroundImageFix" result="shape"/><feGaussianBlur stdDeviation="2" result="effect1_foregroundBlur_418_137"/></filter><filter id="g" x="0" y="0" width="190.342" height="71.104" filterUnits="userSpaceOnUse" color-interpolation-filters="sRGB"><feFlood flood-opacity="0" result="BackgroundImageFix"/><feBlend in="SourceGraphic" in2="BackgroundImageFix" result="shape"/><feGaussianBlur stdDeviation="2" result="effect1_foregroundBlur_418_137"/></filter><filter id="h" x="233.003" y="27" width="41" height="45" filterUnits="userSpaceOnUse" color-interpolation-filters="sRGB"><feFlood flood-opacity="0" result="BackgroundImageFix"/><feBlend in="SourceGraphic" in2="BackgroundImageFix" result="shape"/><feGaussianBlur stdDeviation="2.5" result="effect1_foregroundBlur_418_137"/></filter></defs></svg>