<svg width="67" height="40" fill="none" xmlns="http://www.w3.org/2000/svg"><path fill-rule="evenodd" clip-rule="evenodd" d="M5.933 18.584v21.41H0V8.106h6.158l8.948 14.451C34.774-1.875 53.01-3.562 64.126 3.932 56.144.694 38.083-2.424 15.418 32.179l-.292.448-9.193-14.043Z" fill="#fff"/><path fill-rule="evenodd" clip-rule="evenodd" d="m67 34.705-2.416-2.306-.084.075c-1.301 1.22-2.75 2.312-4.358 3.114-1.631.81-3.464 1.1-5.282 1.1a11.257 11.257 0 0 1-4.577-.936 11.48 11.48 0 0 1-3.658-2.557 11.741 11.741 0 0 1-2.434-3.823 12.826 12.826 0 0 1-.875-4.75c-.014-1.613.28-3.213.87-4.72a11.792 11.792 0 0 1 2.434-3.81 11.083 11.083 0 0 1 3.745-2.569 11.317 11.317 0 0 1 4.49-.873c1.811 0 3.643.291 5.262 1.118 1.5.777 2.886 1.746 4.124 2.881l.09.082 2.5-2.615-.091-.081a23.241 23.241 0 0 0-2.338-1.921 13.917 13.917 0 0 0-2.653-1.485 15.558 15.558 0 0 0-3.1-.953 18.616 18.616 0 0 0-3.75-.342c-2.13 0-4.215.373-6.164 1.213a14.798 14.798 0 0 0-4.862 3.304 15.217 15.217 0 0 0-3.191 4.89 16.143 16.143 0 0 0 0 11.977 14.823 14.823 0 0 0 3.191 4.851 15.003 15.003 0 0 0 4.817 3.242C50.62 39.633 52.671 40 54.77 40a17.285 17.285 0 0 0 3.774-.379c1.09-.245 2.15-.6 3.165-1.06.976-.447 1.9-.993 2.758-1.631.87-.65 1.688-1.365 2.447-2.136l.087-.088ZM30.16 20.45V40h-5.939V27.429a85.133 85.133 0 0 1 5.94-6.978Z" fill="#fff"/></svg>